<?xml version="1.0" encoding="UTF-8"?>
<svg id="Capa_2" data-name="Capa 2" xmlns="http://www.w3.org/2000/svg" viewBox="0 0 164.71 162.12">
  <defs>
    <style>
      .cls-1 {
        fill: #fff;
        stroke-width: 0px;
      }
    </style>
  </defs>
  <g id="Capa_3" data-name="Capa 3">
    <g>
      <path class="cls-1" d="M104.75,99.97c-12.81,13-33.02,12.69-45.43.64-12.43-12.07-13.35-32.34-.68-45.41,12.41-12.8,32.65-13.1,45.45-.66,12.76,12.41,13.03,32.54.66,45.43Z"/>
      <path class="cls-1" d="M164.71,60.93c-.58,1.55-1.32,2.87-2.21,4.11-4.84,6.68-11.51,9.3-19.57,8.82-.82-.05-1.64-.14-2.45-.25-2.41-.36-4.18.67-5.67,2.47-1.25,1.52-2.23,3.23-3.4,4.81-3.61,4.82-8.35,6.92-14.35,6.07-.66-.09-1.31-.26-1.97-.35-.49-.06-.6-.23-.47-.73.53-1.93.85-3.91.98-5.91.3-4.61-.29-9.11-1.8-13.48-.16-.46-.09-.54.39-.57,2.82-.18,5.33-1.26,7.67-2.79,1.31-.85,2.48-1.86,3.61-2.94,1.86-1.78,4.12-2.79,6.6-3.32,3.37-.72,6.66-.55,9.8,1.04,1.09.55,1.99,1.38,2.96,2.11,2.24,1.67,4.61,3.06,7.37,3.7,3.59.83,6.96.14,10.18-1.48.76-.38,1.49-.82,2.34-1.29Z"/>
      <path class="cls-1" d="M85.86,111.28c-.08.56-.17,1.08-.22,1.61-.3,3.43.58,6.61,2.07,9.65.23.46.47.91.73,1.35,2.06,3.57,2.26,7.36,1.32,11.27-.58,2.41-1.69,4.56-3.53,6.25-.97.89-2.05,1.64-3.04,2.51-3.82,3.34-6.15,7.38-5.84,12.64.1,1.72.46,3.39.98,5.02.05.15.16.3.09.54-.98-.66-1.85-1.41-2.65-2.25-2.07-2.17-3.67-4.63-4.66-7.47-1.65-4.73-1.52-9.47-.04-14.21.25-.8.52-1.59.85-2.36.92-2.17.62-4.16-.77-6.04-.84-1.14-1.77-2.22-2.74-3.25-1.64-1.74-3.05-3.64-3.97-5.87-1.5-3.64-1.25-7.25.16-10.84.24-.62.55-1.21.79-1.83.16-.41.32-.48.74-.27,3.7,1.92,7.62,3.1,11.76,3.57,2.46.28,4.91.28,7.37.02.18-.02.37-.03.59-.05Z"/>
      <path class="cls-1" d="M47.79,0c.56-.02.99.12,1.43.23,3.28.86,6.21,2.37,8.74,4.65,4.07,3.67,6.2,8.33,6.96,13.68.12.86.2,1.73.27,2.6.15,2.04,1.16,3.52,2.9,4.55,1.52.9,3.17,1.53,4.8,2.18,1.95.78,3.76,1.79,5.36,3.16,2.8,2.41,4.25,5.5,4.69,9.12.12.99.16,1.98.18,2.97,0,.34-.06.47-.45.46-6.82-.18-13.12,1.54-18.93,5.11-.5.31-.49.31-.65-.26-.6-2.13-1.7-3.98-3.1-5.67-1.37-1.64-2.98-3.01-4.75-4.19-2.09-1.4-3.55-3.34-4.59-5.59-1.42-3.06-2-6.24-1.25-9.58.21-.94.58-1.82,1.02-2.68,1.15-2.25,2.09-4.57,2.49-7.08.61-3.82-.3-7.29-2.45-10.47-.7-1.03-1.49-2-2.36-2.89-.08-.08-.15-.17-.29-.31Z"/>
      <path class="cls-1" d="M120.65,2.43c.97,1.69,1.6,3.34,2.02,5.08,1.48,6.18.27,11.85-3.27,17.09-1.09,1.61-2.43,2.99-3.81,4.35-.54.53-1.06,1.07-1.47,1.71-.71,1.09-.82,2.3-.67,3.55.19,1.64.66,3.21,1.18,4.77.85,2.59,1.34,5.23,1.03,7.97-.32,2.89-1.55,5.36-3.44,7.53-.85.98-1.81,1.86-2.82,2.68-.3.24-.41.17-.62-.1-4.16-5.44-9.47-9.3-15.93-11.58-.27-.1-.46-.13-.21-.49,2.38-3.43,3.13-7.32,2.77-11.38-.44-5,1.25-9.13,4.66-12.64,1.65-1.7,3.67-2.83,6.02-3.31,2.54-.52,5-1.28,7.25-2.6,3.58-2.1,5.68-5.28,6.71-9.24.27-1.06.45-2.13.6-3.37Z"/>
      <path class="cls-1" d="M145.49,133.15c-1.93.55-3.76.75-5.61.72-4.05-.06-7.79-1.19-11.16-3.45-3-2.02-5.38-4.62-7.19-7.74-.46-.78-.9-1.57-1.46-2.29-1.12-1.43-2.69-1.85-4.39-1.97-1.54-.11-3.07.01-4.61.11-3.46.21-6.8-.22-9.82-2.08-2.54-1.56-4.28-3.83-5.62-6.45-.19-.38-.59-.8-.47-1.15.12-.35.7-.41,1.08-.59,4.37-2.07,8.12-4.97,11.28-8.62,1.05-1.21,2.01-2.5,2.85-3.88.18-.29.32-.44.62-.08,1.83,2.19,4.21,3.55,6.84,4.53,1.42.52,2.87.88,4.37,1.11,2.53.37,4.69,1.51,6.65,3.11,1.88,1.54,3.36,3.4,4.38,5.61.83,1.8,1.15,3.7,1.07,5.69-.11,2.47.08,4.92.8,7.31,1.27,4.23,4.08,7.11,7.97,9.02.76.37,1.54.7,2.44,1.1Z"/>
      <path class="cls-1" d="M13.31,127.3c-.1-1-.06-1.88.03-2.76.49-4.56,2.19-8.58,5.32-11.96,2.82-3.05,6.26-5.09,10.19-6.34.65-.21,1.3-.43,1.94-.66,1.51-.54,2.51-1.59,3.1-3.07.72-1.81.99-3.73,1.3-5.63.47-2.84,1.37-5.5,3.14-7.81,1.47-1.91,3.35-3.3,5.56-4.24,1.26-.54,2.57-.92,3.91-1.23.37-.09.47.03.54.36,1,5.21,3.12,9.92,6.31,14.15.89,1.19,1.86,2.32,2.93,3.35.15.14.34.26,0,.44-3.14,1.63-5.29,4.21-6.94,7.26-.37.69-.73,1.4-1,2.13-1.27,3.38-3.65,5.76-6.73,7.51-2.51,1.43-5.2,2.16-8.11,1.85-1.38-.15-2.69-.63-4.06-.88-2.89-.53-5.77-.65-8.62.24-2.83.89-5.09,2.6-6.98,4.83-.64.75-1.2,1.55-1.84,2.45Z"/>
      <path class="cls-1" d="M0,55.7c1.71-1.53,3.49-2.66,5.46-3.48,7.06-2.97,13.77-1.99,20.19,1.88.6.36,1.19.74,1.76,1.14,1.75,1.22,3.59,1.34,5.55.57,1.6-.63,3.07-1.49,4.55-2.34,2.34-1.34,4.82-2.27,7.54-2.45,3.31-.22,6.26.82,8.98,2.64.6.4,1.16.84,1.74,1.26.26.18.3.33.07.61-3.05,3.57-5.26,7.6-6.64,12.09-.6,1.95-1.03,3.94-1.24,5.97-.04.4-.11.51-.54.34-3.15-1.29-6.39-1.32-9.68-.7-.77.15-1.55.31-2.29.56-2.59.89-5.2.89-7.84.25-2.79-.68-5.28-1.95-7.34-3.98-1.25-1.24-2.02-2.77-2.75-4.35-.98-2.12-2.22-4.08-3.85-5.77-2.52-2.62-5.64-3.97-9.23-4.29-1.43-.13-2.86-.08-4.46.07Z"/>
      <path class="cls-1" d="M138.73,92.5c-.45,1.04-1.02,1.88-1.66,2.65-2.76,3.34-6.34,5.07-10.64,5.31-3.63.21-7.08-.47-10.26-2.28-1.82-1.04-3.27-2.45-4.26-4.32-.15-.29-.16-.51,0-.8.81-1.54,1.49-3.15,2.02-4.82.12-.37.26-.42.62-.3,2.61.84,5.26,1.02,7.94.42.27-.06.44-.01.61.21,3.51,4.59,8.72,6.21,14.19,4.43.45-.15.9-.31,1.46-.5Z"/>
      <path class="cls-1" d="M105.76,131.3c-.76.24-1.44.31-2.11.35-3.84.23-7.28-.84-10.2-3.36-3.58-3.08-5.81-6.94-6.39-11.67-.23-1.83.05-3.61.77-5.32.11-.26.25-.4.54-.46,1.73-.33,3.43-.81,5.07-1.43.36-.13.5-.08.64.28.77,2.02,1.95,3.79,3.46,5.33.37.38.78.72,1.19,1.05.23.19.29.36.21.65-1.37,5.45.75,10.72,5.52,13.76.4.25.8.5,1.29.81Z"/>
      <path class="cls-1" d="M36.64,39.61c.77-.71,1.57-1.18,2.4-1.59,4.61-2.26,9.17-1.95,13.66.32,2.95,1.49,5.43,3.55,7.19,6.39.95,1.54,1.49,3.22,1.58,5.04.01.29-.03.52-.29.71-1.45,1.09-2.79,2.31-4.06,3.61-.3.31-.44.05-.62-.11-1.75-1.65-3.76-2.87-6.08-3.47-.94-.24-1.3-.65-1.54-1.58-1.42-5.31-5.68-8.74-11.34-9.24-.27-.02-.53-.05-.91-.09Z"/>
      <path class="cls-1" d="M54.33,129.7c-1.06-.86-1.94-1.81-2.67-2.89-2.56-3.78-3.06-7.89-1.99-12.26.77-3.16,2.19-6,4.46-8.35,1.34-1.38,2.95-2.37,4.82-2.9.31-.09.55-.07.79.15,1.38,1.2,2.87,2.26,4.44,3.2.35.21.11.37.01.53-1.15,1.96-1.86,4.06-2.1,6.32-.06.56.16,1.23-.16,1.65-.3.39-.94.51-1.41.78-4.74,2.75-6.98,7.47-6.21,13.07.03.2.1.4,0,.69Z"/>
      <path class="cls-1" d="M82.81,18.8c1.31.26,2.42.67,3.48,1.22,4.12,2.15,6.51,5.62,7.58,10.06.72,2.99.79,5.99,0,8.98-.56,2.11-1.57,3.96-3.23,5.42-.19.17-.36.2-.6.14-1.79-.46-3.61-.77-5.45-.92-.29-.02-.36-.12-.34-.41.18-2.72-.3-5.31-1.52-7.75-.1-.2-.11-.35.04-.55,3.78-4.87,3.99-10.24.6-15.4-.15-.23-.31-.45-.55-.8Z"/>
      <path class="cls-1" d="M24.13,89.15c-.07-1.31.11-2.47.42-3.61,1.25-4.65,4.25-7.78,8.55-9.75,3.04-1.4,6.22-2.08,9.57-1.66,1.74.22,3.34.82,4.79,1.83.21.14.3.28.3.54-.05,1.87.02,3.73.29,5.57.05.31-.05.41-.36.46-2.64.41-5.02,1.4-7.12,3.07-.26.21-.46.23-.77.08-5.08-2.52-10.55-1.64-14.59,2.35-.34.33-.66.68-1.09,1.12Z"/>
      <path class="cls-1" d="M128.19,41.84c.81,1.53,1.24,3.07,1.43,4.67.47,3.97-.65,7.5-2.99,10.68-1.93,2.62-4.33,4.69-7.31,6.02-1.91.85-3.91,1.19-6.01.9-.32-.04-.51-.16-.64-.47-.72-1.66-1.61-3.24-2.61-4.76-.19-.29-.16-.41.11-.6,2.19-1.56,3.85-3.56,4.96-6.01.1-.22.21-.29.46-.29,5.59.04,10.11-3.11,12.02-8.37.2-.54.37-1.1.59-1.76Z"/>
    </g>
  </g>
</svg>