<?xml version="1.0" encoding="UTF-8"?>
<svg id="Capa_2" data-name="Capa 2" xmlns="http://www.w3.org/2000/svg" viewBox="0 0 164.19 163.23">
  <defs>
    <style>
      .cls-1 {
        fill: #fff;
        stroke-width: 0px;
      }
    </style>
  </defs>
  <g id="Capa_3" data-name="Capa 3">
    <g>
      <path class="cls-1" d="M83.99,110.97c-18.25.13-32.32-14.37-32.58-31.67-.25-17.33,13.43-32.31,31.63-32.59,17.83-.28,32.35,13.82,32.6,31.67.25,17.79-13.79,32.22-31.65,32.59Z"/>
      <path class="cls-1" d="M153.99,125.76c-1.51.68-2.96,1.1-4.47,1.34-8.14,1.3-14.71-1.56-20.07-7.6-.54-.61-1.06-1.25-1.55-1.91-1.45-1.96-3.43-2.49-5.75-2.26-1.96.19-3.86.71-5.8.99-5.96.86-10.8-1.01-14.44-5.86-.4-.53-.74-1.11-1.15-1.64-.3-.39-.26-.59.18-.85,1.74-.99,3.36-2.17,4.87-3.49,3.47-3.05,6.24-6.65,8.26-10.8.21-.44.32-.45.68-.13,2.13,1.87,4.66,2.88,7.4,3.45,1.53.32,3.07.44,4.63.47,2.57.06,4.88.94,7.01,2.32,2.89,1.88,5.1,4.32,6.19,7.66.38,1.16.43,2.38.6,3.58.4,2.76,1.1,5.42,2.6,7.82,1.95,3.12,4.82,5.02,8.25,6.16.81.27,1.64.48,2.57.74Z"/>
      <path class="cls-1" d="M62.63,105.61c-.45.34-.89.64-1.29.98-2.63,2.21-4.27,5.08-5.36,8.29-.17.48-.31.98-.44,1.47-1.06,3.98-3.61,6.8-7.04,8.9-2.11,1.29-4.41,2.03-6.91,1.93-1.31-.05-2.61-.29-3.93-.38-5.06-.34-9.57.87-13.06,4.81-1.14,1.29-2.07,2.72-2.86,4.24-.07.14-.1.33-.32.45-.23-1.16-.31-2.31-.28-3.46.07-2.99.68-5.87,1.98-8.57,2.17-4.51,5.62-7.77,10.02-10.07.74-.39,1.5-.76,2.27-1.07,2.18-.89,3.38-2.5,3.73-4.81.21-1.41.32-2.82.36-4.23.06-2.39.42-4.73,1.35-6.95,1.51-3.63,4.24-6.01,7.78-7.56.61-.27,1.25-.47,1.86-.74.4-.18.57-.12.71.34,1.26,3.97,3.19,7.58,5.79,10.84,1.54,1.93,3.27,3.68,5.2,5.23.14.12.28.24.45.38Z"/>
      <path class="cls-1" d="M114.4,0c.41.38.62.79.84,1.17,1.71,2.93,2.72,6.07,2.89,9.47.28,5.47-1.51,10.27-4.75,14.6-.52.7-1.08,1.37-1.65,2.03-1.34,1.55-1.67,3.31-1.16,5.27.44,1.71,1.16,3.32,1.85,4.94.82,1.93,1.4,3.92,1.55,6.03.27,3.68-.88,6.9-3.13,9.77-.61.78-1.28,1.51-1.97,2.22-.24.24-.38.29-.64.01-4.69-4.95-10.37-8.19-17-9.77-.57-.14-.57-.13-.28-.64,1.08-1.93,1.62-4.01,1.81-6.2.19-2.13.02-4.23-.39-6.32-.49-2.47-.14-4.87.71-7.2,1.15-3.17,3-5.82,5.89-7.66.81-.52,1.69-.88,2.61-1.17,2.4-.78,4.71-1.75,6.76-3.25,3.13-2.27,4.94-5.37,5.67-9.13.24-1.23.37-2.47.37-3.72,0-.11,0-.23.02-.43Z"/>
      <path class="cls-1" d="M164.19,53.24c-.51,1.88-1.23,3.5-2.16,5.02-3.32,5.42-8.19,8.57-14.39,9.77-1.91.37-3.84.4-5.77.38-.75,0-1.51,0-2.25.17-1.27.27-2.21,1.05-2.99,2.04-1.03,1.29-1.8,2.74-2.54,4.21-1.23,2.43-2.75,4.64-4.91,6.36-2.27,1.81-4.89,2.69-7.75,2.89-1.3.09-2.59.04-3.89-.1-.39-.04-.41-.17-.36-.51.9-6.79-.12-13.28-3.08-19.46-.13-.26-.23-.42.2-.49,4.11-.75,7.39-2.96,10.01-6.08,3.23-3.84,7.34-5.57,12.23-5.64,2.37-.04,4.59.59,6.6,1.92,2.16,1.43,4.44,2.63,6.97,3.29,4.02,1.04,7.75.29,11.28-1.79.94-.56,1.83-1.19,2.81-1.96Z"/>
      <path class="cls-1" d="M89.34,163.23c-1.75-.98-3.19-2.13-4.48-3.46-2.82-2.91-4.67-6.34-5.45-10.33-.7-3.55-.54-7.07.39-10.56.23-.88.48-1.75.59-2.65.22-1.8-.6-3.21-1.71-4.5-1.01-1.17-2.18-2.16-3.34-3.19-2.6-2.3-4.65-4.96-5.47-8.42-.69-2.9-.32-5.74.59-8.53.13-.4.15-.98.48-1.14.33-.17.78.21,1.18.35,4.56,1.63,9.26,2.23,14.07,1.88,1.6-.12,3.19-.35,4.76-.73.33-.08.54-.09.5.38-.26,2.84.46,5.49,1.64,8.04.63,1.37,1.41,2.66,2.31,3.87,1.52,2.05,2.25,4.39,2.5,6.9.24,2.42-.03,4.78-.87,7.06-.69,1.87-1.8,3.43-3.27,4.78-1.83,1.67-3.42,3.54-4.6,5.73-2.09,3.89-2.14,7.91-.75,12.01.27.8.6,1.58.95,2.51Z"/>
      <path class="cls-1" d="M0,65.63c.63-.78,1.29-1.38,1.97-1.93,3.57-2.87,7.61-4.52,12.22-4.7,4.15-.16,8.03.82,11.69,2.72.61.31,1.22.62,1.84.91,1.45.69,2.9.65,4.37.02,1.79-.77,3.33-1.94,4.9-3.06,2.34-1.67,4.86-2.92,7.75-3.3,2.39-.31,4.7.03,6.93.93,1.27.51,2.47,1.17,3.63,1.89.32.2.32.35.12.64-2.98,4.39-4.81,9.22-5.55,14.47-.21,1.47-.32,2.96-.3,4.45,0,.2.06.42-.31.31-3.37-1.07-6.71-.76-10.04.23-.75.22-1.5.47-2.22.8-3.29,1.5-6.66,1.49-10.07.56-2.78-.76-5.21-2.15-7.05-4.43-.87-1.08-1.46-2.35-2.25-3.49-1.67-2.42-3.62-4.54-6.27-5.93-2.63-1.37-5.44-1.76-8.36-1.52-.98.08-1.95.25-3.03.43Z"/>
      <path class="cls-1" d="M41.22,5.6c2.29.13,4.35.59,6.32,1.39,7.09,2.89,11.14,8.33,12.95,15.61.17.68.32,1.36.44,2.05.37,2.1,1.59,3.49,3.52,4.33,1.58.68,3.23,1.11,4.88,1.56,2.6.71,5.02,1.8,7.07,3.6,2.5,2.19,3.85,5.01,4.48,8.22.14.7.22,1.42.34,2.12.05.31-.02.45-.38.48-4.68.37-9.09,1.66-13.24,3.86-1.8.95-3.51,2.05-5.1,3.34-.31.25-.44.29-.62-.15-1.31-3.14-3.59-5.45-6.35-7.34-.65-.44-1.31-.88-2.02-1.22-2.46-1.21-4.31-3.05-5.72-5.36-1.5-2.46-2.36-5.11-2.37-8.01,0-1.76.53-3.39,1.13-5.02.8-2.19,1.32-4.45,1.36-6.8.07-3.63-1.18-6.79-3.49-9.56-.92-1.1-1.97-2.08-3.2-3.1Z"/>
      <path class="cls-1" d="M113.3,129.71c-1.06.42-2.05.61-3.05.7-4.31.41-8.07-.9-11.28-3.77-2.71-2.42-4.68-5.34-5.64-8.87-.55-2.02-.57-4.05.04-6.07.09-.31.24-.48.56-.57,1.67-.52,3.28-1.17,4.83-1.98.34-.18.48-.11.66.23,1.25,2.44,3,4.44,5.32,5.91.23.15.32.3.28.58-.76,5.72,1.77,10.56,6.9,13.16.42.22.85.42,1.38.67Z"/>
      <path class="cls-1" d="M62.55,133.83c-.71-.37-1.24-.8-1.74-1.25-2.88-2.55-4.55-5.74-4.84-9.58-.35-4.71.8-9.01,3.73-12.77,1.13-1.46,2.59-2.52,4.31-3.22.26-.1.46-.1.71.06,1.46.99,2.99,1.85,4.6,2.57.35.16.41.3.25.65-.89,1.98-1.3,4.06-1.33,6.22,0,.53.05,1.06.1,1.58.03.3-.05.46-.31.61-4.82,2.89-7.05,8.11-5.82,13.63.1.46.21.92.34,1.49Z"/>
      <path class="cls-1" d="M78.5,20.12c1.04.05,1.95.27,2.83.57,4.85,1.66,7.86,5.11,9.43,9.89,1.03,3.14,1.33,6.35.56,9.6-.42,1.76-1.22,3.33-2.44,4.68-.2.22-.39.35-.71.3-1.8-.25-3.61-.34-5.42-.32-.43,0-.35-.27-.36-.51-.07-2.4-.63-4.69-1.85-6.75-.49-.83-.46-1.38.02-2.21,2.76-4.76,2.16-10.2-1.49-14.55-.17-.21-.34-.41-.58-.71Z"/>
      <path class="cls-1" d="M27.31,96.34c-.14-1.36-.09-2.65.15-3.93.86-4.48,3.42-7.75,7.26-10.08,2.78-1.69,5.79-2.7,9.06-2.75,1.93-.03,3.76.41,5.46,1.36.28.16.43.34.46.67.12,1.83.43,3.63.88,5.4.1.39-.18.34-.37.38-2.2.57-4.19,1.56-5.96,2.99-.44.35-.76.98-1.28,1.05-.49.06-1.03-.3-1.55-.44-5.3-1.41-10.22.35-13.63,4.85-.12.16-.21.35-.49.49Z"/>
      <path class="cls-1" d="M125.87,38.06c.74,1.11,1.24,2.18,1.6,3.33,1.39,4.43.63,8.58-1.76,12.47-1.6,2.62-3.68,4.79-6.36,6.35-1.89,1.09-3.91,1.69-6.12,1.55-.26-.02-.4-.11-.52-.32-.94-1.59-2.01-3.09-3.21-4.5-.19-.22-.17-.34.05-.53,2.04-1.8,3.55-3.96,4.41-6.56.07-.21.16-.33.42-.36,6.11-.77,10.06-4.42,11.32-10.46.06-.27.1-.53.18-.95Z"/>
      <path class="cls-1" d="M34.63,46.3c.88-.98,1.83-1.67,2.85-2.26,4.17-2.4,8.51-2.49,12.94-.85,3.14,1.16,5.86,2.93,7.94,5.6,1.08,1.38,1.78,2.95,2.09,4.68.04.25.02.41-.17.59-1.36,1.28-2.62,2.65-3.74,4.15-.19.25-.32.26-.58.07-2.15-1.57-4.55-2.56-7.2-2.86-.33-.04-.49-.16-.6-.49-1.81-5.38-6.3-8.62-11.98-8.65-.48,0-.95.01-1.56.02Z"/>
      <path class="cls-1" d="M141.67,86.44c-.51,1.66-1.29,3.04-2.29,4.31-2.47,3.14-5.76,4.84-9.67,5.44-3.22.49-6.37.26-9.43-.92-1.95-.75-3.61-1.93-4.88-3.61-.19-.26-.25-.47-.12-.79.66-1.69,1.16-3.43,1.52-5.21.07-.34.17-.4.5-.35,2.65.44,5.24.21,7.76-.75.23-.09.36-.06.53.12,3.92,3.98,9.35,4.95,14.42,2.58.52-.25,1.04-.52,1.66-.83Z"/>
    </g>
  </g>
</svg>